# xmcd CD database file
#
# Track frame offsets:
#        200
#        22645
#        45857
#        63552
#
# Disc length: 1162 seconds
#
# Revision: 0
# Processed by: cddbd v1.5.2PL0 Copyright (c) Steve Scherf et al.
# Submitted via: CUERipper 2.1.5
#
DISCID=21048804
DTITLE=Larry McCray - The Devil's Music Live
DYEAR=1990
DGENRE=Blues
TTITLE0=Me And My Baby
TTITLE1=Walk Right In
TTITLE2=Sally's Got A Friend In New York City
TTITLE3=Can't You See What You're Doing To Me
EXTD=
EXTT0=
EXTT1=
EXTT2=
EXTT3=
PLAYORDER=
